<?xml version="1.0" encoding="UTF-8"?><svg id="a" xmlns="http://www.w3.org/2000/svg" viewBox="0 0 720 720"><path id="b" d="M360,0C161.18,0,0,161.18,0,360s161.18,360,360,360,360-161.18,360-360S558.82,0,360,0Zm0,691.2c-182.92,0-331.2-148.28-331.2-331.2S177.08,28.8,360,28.8s331.2,148.28,331.2,331.2-148.28,331.2-331.2,331.2Z"/><polygon id="c" points="370.8 399.6 435.6 399.6 435.6 529.2 464.4 529.2 464.4 399.6 529.2 399.6 529.2 370.8 370.8 370.8 370.8 399.6"/><polygon id="d" points="332.43 367.2 270 429.64 207.57 367.2 187.2 387.57 249.64 450 187.2 512.43 207.57 532.8 270 470.36 332.43 532.8 352.8 512.43 290.36 450 352.8 387.57 332.43 367.2"/><path id="e" d="M448.2,349.2c44.73,0,81-36.27,81-81h-28.8c0,28.83-23.37,52.2-52.2,52.2-8.23,0-16.01-1.91-22.93-5.3l69.83-69.83,21.08-21.08c-14.44-22.25-39.48-36.98-67.98-36.98-44.74,0-81,36.27-81,81s36.26,81,81,81Zm0-133.2c10.12,0,19.56,2.89,27.56,7.88l-71.88,71.88c-4.99-8-7.87-17.44-7.87-27.56,0-28.83,23.37-52.2,52.2-52.2Z"/><polygon id="f" points="270 259.58 209.26 187.2 187.2 205.71 255.6 287.23 255.6 349.2 284.4 349.2 284.4 287.23 352.8 205.71 330.74 187.2 270 259.58"/></svg>